<svg id="svg" version="1.1" xmlns="http://www.w3.org/2000/svg" xmlns:xlink="http://www.w3.org/1999/xlink" width="400" height="669.4935217903416" viewBox="0, 0, 400,669.4935217903416"><g id="svgg"><path id="path0" d="M232.711 393.125 L 231.622 393.251 234.111 396.468 C 235.480 398.237,236.959 400.161,237.397 400.742 C 238.186 401.790,242.753 407.593,243.780 408.854 C 244.074 409.214,245.458 410.988,246.857 412.797 C 248.256 414.605,250.536 417.551,251.924 419.343 C 253.312 421.134,255.742 424.272,257.324 426.316 C 258.906 428.360,260.879 430.880,261.709 431.916 C 262.539 432.952,263.529 434.254,263.909 434.808 C 264.289 435.362,266.673 438.422,269.207 441.608 C 271.742 444.794,274.172 447.873,274.607 448.451 C 275.043 449.029,276.435 450.852,277.700 452.504 C 278.965 454.155,280.000 455.766,280.000 456.083 C 280.000 456.747,284.023 462.205,285.393 463.400 C 286.658 464.503,302.731 485.242,304.614 488.200 C 305.454 489.520,306.826 491.410,307.662 492.400 C 308.498 493.390,309.636 494.740,310.190 495.400 C 310.745 496.060,311.199 496.754,311.200 496.942 C 311.200 497.131,311.650 497.639,312.200 498.071 C 312.750 498.504,313.200 499.072,313.200 499.333 C 313.200 499.594,313.605 500.256,314.100 500.804 C 314.595 501.352,315.492 502.459,316.094 503.265 C 316.696 504.071,317.422 504.971,317.707 505.265 C 317.993 505.559,318.661 506.430,319.193 507.200 C 319.725 507.970,320.394 508.744,320.680 508.920 C 320.966 509.096,321.498 509.816,321.861 510.520 C 322.225 511.224,322.730 511.980,322.983 512.200 C 323.236 512.420,324.187 513.590,325.096 514.800 C 326.005 516.010,327.127 517.405,327.590 517.900 C 328.052 518.395,328.334 518.800,328.216 518.800 C 328.097 518.800,328.315 519.135,328.700 519.544 C 329.447 520.339,330.777 521.966,332.892 524.675 C 333.611 525.596,334.740 527.013,335.400 527.824 C 336.060 528.635,337.103 530.036,337.719 530.937 C 338.334 531.838,338.977 532.671,339.149 532.788 C 339.320 532.905,339.783 533.556,340.178 534.235 C 341.034 535.709,342.473 535.671,343.470 534.149 C 343.812 533.627,344.245 533.200,344.433 533.200 C 344.620 533.200,345.407 532.615,346.182 531.900 C 346.957 531.185,348.358 529.946,349.296 529.147 C 350.233 528.348,351.808 526.998,352.796 526.147 C 355.028 524.224,355.255 524.034,356.797 522.800 C 357.484 522.250,358.609 521.215,359.297 520.500 C 359.984 519.785,360.744 519.200,360.985 519.200 C 361.225 519.200,361.872 518.705,362.421 518.100 C 362.971 517.495,364.376 516.190,365.544 515.200 C 366.712 514.210,368.170 512.950,368.783 512.400 C 369.397 511.850,370.670 510.770,371.612 510.000 C 372.554 509.230,373.792 508.176,374.362 507.658 C 374.933 507.140,376.102 506.150,376.960 505.458 C 377.818 504.766,379.097 503.660,379.802 503.000 C 380.508 502.340,382.056 501.004,383.243 500.032 C 384.429 499.059,385.940 497.763,386.600 497.150 C 387.705 496.124,388.588 495.373,393.539 491.249 C 397.465 487.978,399.999 485.570,400.000 485.112 C 400.000 484.638,397.472 481.200,397.123 481.200 C 396.945 481.200,396.800 481.025,396.800 480.812 C 396.800 480.598,395.675 478.956,394.300 477.162 C 392.925 475.369,391.440 473.400,391.000 472.787 C 389.851 471.188,388.337 469.289,387.318 468.169 C 386.833 467.636,386.534 467.200,386.654 467.200 C 386.773 467.200,386.450 466.681,385.936 466.047 C 385.421 465.413,384.550 464.320,384.000 463.617 C 383.450 462.914,382.584 461.858,382.077 461.270 C 381.569 460.681,380.889 459.705,380.566 459.100 C 380.244 458.495,379.758 458.000,379.486 458.000 C 379.008 458.000,374.518 452.621,372.975 450.200 C 372.555 449.540,372.018 448.820,371.783 448.600 C 371.547 448.380,370.825 447.496,370.177 446.635 C 369.530 445.774,367.947 443.704,366.660 442.035 C 363.340 437.728,359.228 432.327,356.431 428.600 C 355.111 426.840,353.788 425.130,353.492 424.800 C 353.196 424.470,351.344 422.048,349.377 419.419 C 347.410 416.789,345.510 414.339,345.155 413.974 C 344.801 413.609,344.186 412.762,343.790 412.091 C 343.159 411.022,342.904 410.898,341.735 411.088 C 340.881 411.227,340.400 411.142,340.400 410.853 C 340.400 410.604,339.815 410.410,339.100 410.421 C 337.223 410.451,329.023 409.119,328.876 408.761 C 328.808 408.594,328.133 408.558,327.376 408.681 C 326.533 408.818,326.000 408.740,326.000 408.481 C 326.000 408.248,325.415 408.058,324.700 408.058 C 322.672 408.061,314.300 406.632,314.599 406.334 C 314.746 406.187,314.131 406.166,313.233 406.286 C 312.123 406.435,311.600 406.354,311.600 406.035 C 311.600 405.717,311.163 405.646,310.256 405.816 C 309.225 406.009,308.853 405.916,308.662 405.417 C 308.463 404.899,308.247 404.854,307.606 405.197 C 307.081 405.478,306.552 405.496,306.089 405.248 C 305.698 405.039,303.545 404.645,301.303 404.373 C 299.061 404.102,297.324 403.722,297.443 403.530 C 297.562 403.338,296.948 403.295,296.080 403.434 C 295.091 403.592,294.398 403.520,294.226 403.242 C 294.071 402.991,293.523 402.905,292.970 403.043 C 292.431 403.179,291.748 403.089,291.453 402.844 C 291.158 402.600,290.486 402.404,289.959 402.409 C 288.174 402.426,280.201 401.066,280.063 400.721 C 279.988 400.532,279.313 400.493,278.563 400.633 C 277.609 400.812,277.200 400.740,277.200 400.395 C 277.200 400.060,276.817 399.977,276.016 400.137 C 275.364 400.267,274.744 400.233,274.637 400.060 C 274.530 399.887,272.457 399.510,270.030 399.221 C 267.522 398.923,265.716 398.535,265.848 398.323 C 265.985 398.100,265.508 398.056,264.665 398.214 C 263.888 398.360,263.015 398.332,262.726 398.152 C 262.437 397.972,261.785 397.878,261.279 397.944 C 260.772 398.009,260.124 397.869,259.837 397.631 C 259.551 397.394,258.886 397.204,258.359 397.209 C 256.689 397.225,248.605 395.877,248.476 395.561 C 248.408 395.394,247.733 395.358,246.976 395.481 C 246.043 395.633,245.600 395.549,245.600 395.221 C 245.600 394.889,245.216 394.821,244.384 395.004 C 243.686 395.157,242.943 395.085,242.642 394.835 C 242.353 394.595,241.686 394.403,241.159 394.408 C 239.765 394.420,234.235 393.516,234.000 393.237 C 233.890 393.107,233.310 393.056,232.711 393.125 M45.200 406.938 C 45.200 407.082,45.560 407.560,46.000 408.000 C 46.440 408.440,46.800 408.648,46.800 408.462 C 46.800 408.276,46.440 407.798,46.000 407.400 C 45.560 407.002,45.200 406.794,45.200 406.938 M33.400 452.800 C 33.798 453.240,34.276 453.600,34.462 453.600 C 34.648 453.600,34.440 453.240,34.000 452.800 C 33.560 452.360,33.082 452.000,32.938 452.000 C 32.794 452.000,33.002 452.360,33.400 452.800 M209.300 485.876 C 209.685 485.976,210.315 485.976,210.700 485.876 C 211.085 485.775,210.770 485.693,210.000 485.693 C 209.230 485.693,208.915 485.775,209.300 485.876 " stroke="none" fill="#1c9cc4" fill-rule="evenodd"></path><path id="path1" d="M15.601 164.976 C 15.599 255.712,15.749 330.045,15.934 330.159 C 16.119 330.273,16.687 332.354,17.197 334.783 C 17.706 337.213,18.256 339.200,18.417 339.200 C 18.579 339.200,18.834 339.875,18.984 340.700 C 19.304 342.456,23.063 353.738,23.815 355.200 C 24.097 355.750,24.543 356.830,24.806 357.600 C 25.068 358.370,25.614 359.720,26.020 360.600 C 26.426 361.480,27.772 364.450,29.012 367.200 C 30.252 369.950,31.500 372.470,31.787 372.800 C 32.074 373.130,32.670 374.120,33.111 375.000 C 33.553 375.880,34.567 377.905,35.363 379.500 C 36.160 381.095,36.967 382.400,37.157 382.400 C 37.346 382.400,37.877 383.272,38.335 384.338 C 38.794 385.404,39.446 386.506,39.785 386.787 C 40.123 387.068,40.400 387.520,40.400 387.791 C 40.400 388.062,40.845 388.764,41.390 389.351 C 41.934 389.938,42.382 390.506,42.386 390.612 C 42.399 391.018,44.616 394.215,45.096 394.520 C 45.373 394.696,45.600 395.078,45.600 395.370 C 45.600 395.661,46.230 396.587,47.000 397.428 C 47.770 398.269,48.400 399.067,48.400 399.203 C 48.400 399.338,48.725 399.798,49.122 400.225 C 49.520 400.651,49.880 401.134,49.924 401.299 C 50.007 401.613,51.362 403.267,52.429 404.357 C 52.775 404.711,53.485 405.630,54.007 406.400 C 54.529 407.170,55.326 408.193,55.778 408.674 C 56.230 409.155,57.860 410.940,59.400 412.640 C 63.115 416.741,69.223 422.894,72.200 425.533 C 73.520 426.703,75.477 428.460,76.549 429.436 C 77.621 430.413,79.016 431.518,79.649 431.892 C 80.282 432.266,80.800 432.718,80.800 432.895 C 80.800 433.072,81.645 433.754,82.678 434.409 C 83.711 435.064,84.406 435.600,84.222 435.600 C 84.039 435.600,84.551 436.050,85.362 436.600 C 86.172 437.150,87.001 437.600,87.204 437.600 C 87.406 437.600,87.765 437.960,88.000 438.400 C 88.235 438.840,88.615 439.200,88.843 439.200 C 89.071 439.200,89.508 439.425,89.815 439.700 C 91.108 440.859,91.600 441.218,91.600 441.000 C 91.600 440.873,91.984 441.127,92.454 441.564 C 92.924 442.002,93.914 442.648,94.654 442.999 C 95.394 443.350,96.000 443.809,96.000 444.019 C 96.000 444.228,96.270 444.400,96.600 444.400 C 96.930 444.400,97.200 444.580,97.200 444.800 C 97.200 445.020,97.470 445.200,97.800 445.200 C 98.130 445.200,98.760 445.560,99.200 446.000 C 99.640 446.440,100.139 446.800,100.309 446.800 C 100.479 446.800,101.588 447.439,102.773 448.219 C 103.958 449.000,105.754 450.013,106.764 450.470 C 107.774 450.928,108.690 451.434,108.800 451.596 C 108.910 451.757,110.080 452.407,111.400 453.039 C 112.720 453.672,113.900 454.325,114.021 454.491 C 114.143 454.656,115.403 455.262,116.821 455.836 C 118.240 456.410,119.580 457.012,119.800 457.174 C 120.020 457.337,121.280 457.892,122.600 458.410 C 123.920 458.927,125.098 459.492,125.218 459.665 C 125.337 459.839,126.581 460.347,127.981 460.794 C 129.381 461.241,130.723 461.764,130.963 461.956 C 131.509 462.392,137.493 464.400,138.246 464.400 C 138.550 464.400,138.800 464.560,138.800 464.755 C 138.800 464.950,139.295 465.205,139.900 465.321 C 141.681 465.664,146.932 467.163,147.800 467.575 C 148.240 467.784,150.400 468.342,152.600 468.813 C 154.800 469.285,156.870 469.770,157.200 469.891 C 157.969 470.173,158.170 470.215,163.300 471.160 C 165.665 471.595,168.860 472.076,170.400 472.227 C 171.940 472.379,173.200 472.621,173.200 472.764 C 173.200 472.908,173.605 473.060,174.100 473.103 C 174.595 473.145,176.710 473.373,178.800 473.609 C 187.733 474.618,215.230 474.473,220.869 473.387 C 221.327 473.299,222.398 473.185,223.251 473.135 C 224.103 473.085,224.800 472.899,224.800 472.722 C 224.800 472.545,225.397 472.400,226.127 472.400 C 226.856 472.400,228.431 472.238,229.627 472.040 C 232.774 471.519,237.751 470.657,238.100 470.573 C 238.265 470.533,238.779 470.477,239.243 470.450 C 239.880 470.412,240.016 470.229,239.802 469.700 C 239.529 469.026,238.589 459.849,236.002 432.600 C 235.333 425.560,234.614 418.360,234.403 416.600 C 234.068 413.797,232.400 396.445,232.400 395.760 C 232.400 395.618,232.715 395.738,233.100 396.027 C 233.485 396.316,233.125 395.867,232.300 395.030 C 231.475 394.193,230.800 393.259,230.800 392.954 C 230.800 392.347,230.169 392.202,229.841 392.734 C 229.727 392.917,228.052 393.375,226.117 393.751 C 224.183 394.127,221.070 394.783,219.200 395.208 C 209.915 397.322,185.720 397.585,181.000 395.624 C 180.560 395.441,177.694 394.817,174.631 394.238 C 171.568 393.658,168.868 393.035,168.631 392.854 C 168.394 392.673,167.300 392.296,166.200 392.016 C 163.212 391.257,161.428 390.643,161.164 390.282 C 161.034 390.104,160.494 389.905,159.964 389.838 C 158.031 389.596,144.471 383.213,142.768 381.744 C 142.420 381.444,142.015 381.319,141.868 381.466 C 141.720 381.613,141.600 381.535,141.600 381.294 C 141.600 381.052,141.241 380.740,140.802 380.601 C 140.364 380.462,139.779 380.134,139.502 379.873 C 138.661 379.079,135.644 377.200,135.209 377.200 C 134.984 377.200,134.800 377.038,134.800 376.840 C 134.800 376.641,134.129 376.083,133.310 375.600 C 132.490 375.116,131.580 374.378,131.287 373.960 C 130.994 373.542,130.508 373.200,130.206 373.200 C 129.905 373.200,129.330 372.794,128.929 372.298 C 128.528 371.802,127.750 371.104,127.200 370.746 C 124.536 369.016,114.295 358.311,110.672 353.471 C 109.820 352.332,108.960 351.340,108.761 351.267 C 108.563 351.193,108.400 350.964,108.400 350.758 C 108.400 350.309,106.486 347.317,105.500 346.225 C 105.115 345.798,104.800 345.309,104.800 345.138 C 104.800 344.967,104.080 343.713,103.200 342.351 C 102.320 340.990,101.600 339.699,101.600 339.482 C 101.600 339.265,101.350 338.888,101.045 338.644 C 100.740 338.400,99.982 337.030,99.361 335.600 C 98.740 334.170,98.123 332.910,97.990 332.800 C 97.858 332.690,97.327 331.430,96.811 330.000 C 96.294 328.570,95.631 327.116,95.336 326.769 C 95.041 326.421,94.800 325.956,94.800 325.736 C 94.800 325.078,93.099 319.817,92.816 319.600 C 92.672 319.490,92.033 317.240,91.395 314.600 C 90.758 311.960,90.212 309.710,90.183 309.600 C 90.154 309.490,90.014 309.130,89.872 308.800 C 89.376 307.653,88.388 299.910,88.133 295.169 C 87.992 292.546,87.725 290.400,87.539 290.400 C 87.352 290.400,87.200 288.240,87.200 285.600 C 87.200 282.960,87.348 280.800,87.528 280.800 C 87.709 280.800,87.854 280.215,87.852 279.500 C 87.837 275.512,89.491 262.676,90.047 262.467 C 90.241 262.393,90.400 261.925,90.400 261.426 C 90.400 260.928,90.572 259.998,90.781 259.360 C 90.991 258.722,91.239 257.660,91.333 257.000 C 91.562 255.383,92.464 252.302,92.864 251.766 C 93.042 251.528,93.619 249.908,94.147 248.166 C 95.118 244.958,97.527 239.252,98.306 238.313 C 98.540 238.031,98.748 237.665,98.767 237.501 C 98.863 236.693,100.594 233.200,100.899 233.200 C 101.090 233.200,101.136 233.020,101.000 232.800 C 100.864 232.580,100.929 232.400,101.145 232.400 C 101.361 232.400,101.741 231.784,101.989 231.032 C 102.238 230.280,102.700 229.449,103.016 229.187 C 103.332 228.924,103.499 228.561,103.387 228.379 C 103.275 228.198,103.434 227.903,103.740 227.725 C 104.046 227.546,104.683 226.635,105.156 225.700 C 105.629 224.765,106.149 224.000,106.310 224.000 C 106.472 224.000,106.825 223.505,107.094 222.900 C 107.364 222.295,108.214 221.080,108.984 220.200 C 109.755 219.320,110.388 218.379,110.392 218.109 C 110.397 217.839,110.850 217.324,111.400 216.963 C 111.950 216.603,112.400 216.075,112.400 215.790 C 112.400 215.504,112.940 214.817,113.600 214.261 C 114.260 213.706,114.800 213.068,114.800 212.843 C 114.800 212.618,115.430 211.931,116.200 211.317 C 116.970 210.703,117.600 210.066,117.600 209.902 C 117.600 209.621,123.183 204.156,125.673 202.000 C 130.038 198.221,132.602 196.186,134.295 195.156 C 135.123 194.653,136.070 193.961,136.400 193.619 C 136.730 193.277,137.675 192.685,138.500 192.305 C 139.325 191.924,140.000 191.442,140.000 191.233 C 140.000 191.025,140.405 190.729,140.900 190.577 C 141.395 190.424,142.520 189.823,143.400 189.240 C 146.353 187.284,156.849 182.335,159.600 181.602 C 160.590 181.338,161.580 180.981,161.800 180.809 C 162.020 180.637,163.280 180.173,164.600 179.777 C 165.920 179.381,167.090 179.027,167.200 178.990 C 167.310 178.952,168.165 178.781,169.100 178.610 C 170.035 178.438,170.800 178.164,170.800 178.001 C 170.800 177.838,171.385 177.600,172.100 177.473 C 172.815 177.345,174.874 176.972,176.676 176.643 C 181.706 175.726,183.330 175.484,184.188 175.526 C 184.621 175.546,185.109 175.347,185.273 175.082 C 185.736 174.333,211.632 174.397,212.539 175.150 C 212.940 175.483,213.652 175.610,214.343 175.471 C 214.970 175.346,215.645 175.395,215.842 175.579 C 216.039 175.764,217.100 176.022,218.200 176.153 C 221.076 176.494,226.400 177.552,226.940 177.890 C 227.193 178.048,227.603 178.208,227.852 178.246 C 228.927 178.410,235.837 180.498,236.200 180.769 C 236.420 180.933,237.860 181.478,239.400 181.980 C 240.940 182.483,242.515 183.170,242.900 183.509 C 243.285 183.847,243.600 184.002,243.600 183.853 C 243.600 183.704,244.005 183.836,244.500 184.146 C 244.995 184.457,246.075 184.925,246.900 185.186 C 247.725 185.448,248.400 185.858,248.400 186.098 C 248.400 186.337,248.515 186.419,248.655 186.278 C 248.795 186.138,249.380 186.342,249.955 186.731 C 250.530 187.121,251.450 187.662,252.000 187.935 C 256.172 190.006,265.364 196.016,266.323 197.300 C 266.610 197.685,267.095 198.000,267.400 198.000 C 267.705 198.000,268.235 198.400,268.577 198.889 C 268.920 199.378,269.200 199.644,269.200 199.479 C 269.200 198.988,271.888 201.472,277.547 207.194 C 285.055 214.784,285.201 214.942,285.200 215.500 C 285.200 215.775,285.382 216.000,285.604 216.000 C 285.826 216.000,286.561 216.900,287.238 218.000 C 287.915 219.100,288.621 220.000,288.807 220.000 C 288.994 220.000,289.250 220.328,289.378 220.729 C 289.505 221.131,289.922 221.806,290.305 222.229 C 291.300 223.333,293.200 226.313,293.200 226.772 C 293.200 226.985,293.425 227.304,293.700 227.480 C 293.975 227.656,294.721 228.790,295.358 230.000 C 295.995 231.210,296.760 232.484,297.058 232.831 C 297.356 233.179,297.600 233.691,297.600 233.970 C 297.600 234.485,298.798 236.836,299.246 237.200 C 299.381 237.310,299.630 237.850,299.799 238.400 C 299.968 238.950,300.551 240.300,301.094 241.400 C 302.834 244.925,305.786 253.622,306.865 258.400 C 306.939 258.730,307.113 259.090,307.251 259.200 C 307.528 259.421,308.735 266.537,309.082 270.000 C 309.204 271.210,309.415 272.245,309.553 272.300 C 309.690 272.356,309.758 273.391,309.704 274.600 C 309.647 275.858,309.775 276.800,310.002 276.800 C 310.254 276.800,310.400 280.033,310.400 285.600 C 310.400 290.751,310.246 294.400,310.028 294.400 C 309.824 294.400,309.678 294.985,309.704 295.700 C 309.760 297.265,309.368 300.546,308.543 305.400 C 308.206 307.380,307.833 309.675,307.713 310.500 C 307.593 311.325,307.358 312.000,307.191 312.000 C 307.024 312.000,306.801 312.585,306.695 313.300 C 306.397 315.319,304.906 320.629,304.288 321.877 C 303.981 322.495,303.404 324.080,303.004 325.400 C 302.604 326.720,302.123 327.902,301.934 328.026 C 301.746 328.151,301.233 329.271,300.796 330.515 C 299.897 333.073,297.182 338.530,296.708 338.734 C 296.536 338.808,296.497 339.033,296.621 339.234 C 296.745 339.435,296.689 339.600,296.495 339.600 C 296.301 339.600,295.736 340.500,295.239 341.600 C 294.742 342.700,294.159 343.600,293.944 343.600 C 293.729 343.600,293.664 343.780,293.800 344.000 C 293.936 344.220,293.875 344.400,293.664 344.400 C 293.453 344.400,292.900 345.130,292.435 346.022 C 291.970 346.915,291.232 348.029,290.795 348.498 C 289.385 350.011,289.752 350.937,292.196 352.024 C 293.404 352.561,294.394 353.122,294.396 353.271 C 294.398 353.420,295.406 354.002,296.635 354.565 C 297.864 355.127,299.408 356.041,300.066 356.594 C 300.723 357.147,301.505 357.600,301.802 357.600 C 302.100 357.600,302.581 357.835,302.871 358.123 C 303.162 358.410,304.435 359.168,305.700 359.806 C 306.965 360.445,308.000 361.120,308.000 361.307 C 308.000 361.494,308.180 361.536,308.400 361.400 C 308.620 361.264,308.800 361.309,308.800 361.500 C 308.800 361.691,309.774 362.285,310.964 362.820 C 312.154 363.355,313.056 363.909,312.969 364.050 C 312.882 364.191,313.393 364.548,314.105 364.842 C 314.817 365.135,316.522 366.056,317.893 366.888 C 319.264 367.720,320.535 368.400,320.717 368.400 C 320.900 368.400,321.398 368.715,321.825 369.100 C 322.251 369.485,323.500 370.236,324.600 370.768 C 325.700 371.300,326.690 371.861,326.800 372.015 C 326.992 372.284,327.935 372.816,333.561 375.829 C 334.970 376.583,335.960 377.205,335.761 377.212 C 335.563 377.218,336.506 377.744,337.857 378.381 C 339.209 379.017,340.428 379.721,340.566 379.945 C 340.705 380.170,341.669 380.769,342.709 381.276 C 343.749 381.784,344.949 382.515,345.375 382.900 C 345.802 383.285,346.415 383.600,346.738 383.600 C 347.060 383.600,347.905 384.043,348.615 384.584 C 349.325 385.126,350.144 385.621,350.437 385.684 C 350.729 385.748,351.156 385.938,351.384 386.106 C 354.874 388.672,356.241 389.122,357.250 388.038 C 357.680 387.577,357.889 387.197,357.716 387.194 C 357.542 387.191,357.593 387.056,357.830 386.894 C 358.066 386.732,358.684 385.835,359.203 384.900 C 359.723 383.965,360.324 383.200,360.540 383.200 C 360.756 383.200,360.819 383.086,360.680 382.946 C 360.540 382.807,360.780 382.243,361.213 381.692 C 361.646 381.142,362.000 380.468,362.000 380.195 C 362.000 379.922,362.289 379.458,362.642 379.165 C 362.995 378.872,363.723 377.641,364.258 376.430 C 364.794 375.218,365.471 373.951,365.763 373.614 C 366.055 373.276,366.738 371.876,367.282 370.502 C 367.825 369.127,368.389 368.122,368.535 368.268 C 368.681 368.414,368.800 368.244,368.800 367.891 C 368.800 367.537,369.586 365.572,370.546 363.524 C 371.507 361.476,372.425 359.350,372.588 358.800 C 372.750 358.250,373.117 357.428,373.403 356.973 C 373.689 356.518,374.305 354.898,374.772 353.373 C 375.239 351.848,375.971 349.848,376.399 348.930 C 376.826 348.011,377.481 346.031,377.854 344.530 C 378.226 343.028,378.637 341.710,378.766 341.600 C 378.895 341.490,379.068 341.130,379.152 340.800 C 380.479 335.567,381.190 332.468,381.194 331.900 C 381.197 331.515,381.352 331.200,381.537 331.200 C 381.842 331.200,382.773 326.686,383.436 322.000 C 383.576 321.010,383.870 319.977,384.090 319.705 C 384.310 319.433,384.392 318.955,384.272 318.644 C 384.153 318.333,384.166 317.967,384.302 317.831 C 384.438 317.695,384.588 317.272,384.634 316.892 C 385.732 307.892,386.057 304.287,386.269 298.715 C 386.409 295.038,386.631 292.096,386.762 292.177 C 387.061 292.362,386.573 277.735,386.023 270.000 C 385.492 262.535,384.704 256.000,384.335 256.000 C 384.176 256.000,384.128 255.595,384.227 255.100 C 384.327 254.605,384.235 253.840,384.024 253.400 C 383.670 252.665,382.698 247.649,382.164 243.806 C 382.042 242.929,381.798 242.119,381.621 242.006 C 381.445 241.893,381.175 241.170,381.021 240.400 C 380.202 236.301,379.033 232.000,378.737 232.000 C 378.552 232.000,378.400 231.713,378.400 231.362 C 378.400 230.546,376.872 225.221,376.374 224.302 C 376.166 223.918,375.528 222.208,374.956 220.502 C 374.384 218.796,373.800 217.310,373.658 217.200 C 373.516 217.090,372.950 215.665,372.400 214.034 C 371.850 212.402,371.175 210.840,370.900 210.562 C 370.625 210.284,370.394 209.819,370.387 209.529 C 370.380 209.238,370.110 208.651,369.787 208.224 C 369.464 207.796,369.200 207.181,369.200 206.855 C 369.200 206.529,368.944 205.979,368.632 205.631 C 368.319 205.284,367.675 204.012,367.200 202.804 C 366.724 201.596,366.200 200.516,366.035 200.404 C 365.869 200.292,365.232 199.131,364.619 197.824 C 364.006 196.516,363.256 195.199,362.952 194.895 C 362.648 194.591,362.399 194.131,362.399 193.871 C 362.398 193.612,361.679 192.320,360.800 191.000 C 359.921 189.680,359.202 188.467,359.201 188.304 C 359.200 188.039,356.114 183.257,355.242 182.169 C 355.052 181.931,354.403 180.956,353.800 180.000 C 353.197 179.044,352.545 178.069,352.351 177.831 C 349.763 174.664,348.400 172.863,348.400 172.612 C 348.400 172.444,347.848 171.652,347.173 170.853 C 345.959 169.415,344.389 167.537,342.782 165.600 C 337.829 159.630,327.094 148.807,321.600 144.245 C 319.510 142.510,317.620 140.883,317.400 140.630 C 317.180 140.377,316.370 139.736,315.600 139.205 C 314.830 138.673,314.086 138.074,313.948 137.873 C 313.809 137.672,312.819 136.991,311.748 136.360 C 310.676 135.730,309.977 135.211,310.193 135.207 C 310.409 135.203,309.923 134.750,309.114 134.200 C 308.305 133.650,307.475 133.200,307.270 133.200 C 307.065 133.200,306.659 132.912,306.366 132.559 C 305.813 131.893,302.137 129.397,300.399 128.508 C 299.849 128.227,298.876 127.547,298.237 126.998 C 297.598 126.449,296.865 126.000,296.608 126.000 C 296.351 126.000,295.292 125.396,294.254 124.659 C 293.217 123.921,291.655 123.082,290.784 122.795 C 289.913 122.507,289.200 122.122,289.200 121.938 C 289.200 121.754,288.345 121.214,287.300 120.736 C 286.255 120.259,285.130 119.657,284.800 119.398 C 284.470 119.140,283.165 118.519,281.900 118.018 C 280.635 117.517,279.600 116.948,279.600 116.754 C 279.600 116.559,279.345 116.400,279.032 116.400 C 278.720 116.400,277.955 116.154,277.332 115.853 C 274.192 114.336,272.386 113.554,270.200 112.762 C 268.880 112.285,267.604 111.739,267.364 111.551 C 267.124 111.363,265.504 110.751,263.764 110.192 C 262.024 109.633,260.330 109.064,260.000 108.927 C 259.232 108.610,259.229 108.609,255.200 107.409 C 253.330 106.851,251.440 106.226,251.000 106.019 C 250.560 105.812,248.850 105.346,247.200 104.983 C 245.550 104.620,243.030 103.990,241.600 103.583 C 238.887 102.810,229.340 101.200,227.476 101.200 C 226.884 101.200,226.400 101.050,226.400 100.867 C 226.400 100.683,226.175 100.530,225.900 100.527 C 225.625 100.523,224.500 100.410,223.400 100.276 C 213.079 99.015,191.819 98.638,182.000 99.541 C 179.250 99.794,175.740 100.116,174.200 100.255 C 172.660 100.395,171.340 100.665,171.267 100.855 C 171.193 101.045,170.674 101.200,170.112 101.200 C 168.372 101.200,159.040 102.796,158.284 103.223 C 157.890 103.445,157.387 103.516,157.166 103.379 C 156.946 103.243,156.548 103.304,156.282 103.516 C 156.017 103.728,153.910 104.300,151.600 104.788 C 149.290 105.276,147.193 105.845,146.941 106.053 C 146.688 106.260,146.148 106.497,145.741 106.579 C 142.917 107.147,139.266 108.184,138.563 108.619 C 138.103 108.903,136.123 109.623,134.163 110.219 C 132.203 110.814,130.510 111.430,130.400 111.586 C 130.290 111.742,129.840 111.977,129.400 112.109 C 127.561 112.657,124.995 113.682,124.804 113.944 C 124.692 114.099,123.250 114.745,121.600 115.379 C 119.950 116.013,118.510 116.646,118.400 116.785 C 118.290 116.924,117.283 117.413,116.161 117.871 C 115.040 118.330,112.430 119.679,110.361 120.869 C 108.293 122.059,106.015 123.273,105.300 123.565 C 104.585 123.858,104.000 124.265,104.000 124.471 C 104.000 124.676,103.013 125.296,101.808 125.848 C 100.602 126.400,99.518 127.009,99.399 127.202 C 99.279 127.395,98.354 127.966,97.342 128.472 C 96.330 128.977,95.414 129.618,95.308 129.895 C 95.202 130.173,94.946 130.400,94.741 130.400 C 94.328 130.400,92.301 131.753,90.897 132.966 L 89.993 133.746 90.097 66.873 L 90.200 -0.000 52.902 -0.000 L 15.604 0.000 15.601 164.976 M277.468 456.263 C 275.747 457.843,275.787 458.351,277.574 457.611 C 279.085 456.985,279.570 456.383,279.251 455.528 C 279.038 454.959,278.766 455.071,277.468 456.263 M83.500 598.570 C 82.675 598.865,82.000 599.031,82.000 598.939 C 82.000 598.754,80.493 599.518,79.825 600.041 C 77.736 601.678,75.901 603.702,75.148 605.200 C 74.650 606.190,74.119 607.090,73.966 607.200 C 72.868 607.993,72.088 616.402,72.747 620.351 C 73.484 624.774,77.285 630.538,80.040 631.413 C 80.458 631.545,80.800 631.805,80.800 631.989 C 80.800 634.161,95.000 634.095,97.375 631.913 C 97.802 631.521,98.349 631.200,98.590 631.200 C 99.186 631.200,102.800 627.496,102.800 626.886 C 102.800 626.619,102.991 626.400,103.224 626.400 C 103.457 626.400,103.536 626.220,103.400 626.000 C 103.264 625.780,103.305 625.600,103.490 625.600 C 104.970 625.600,106.125 615.378,105.232 610.172 C 104.786 607.568,102.708 603.200,101.915 603.200 C 101.742 603.200,101.600 602.960,101.600 602.666 C 101.600 601.993,97.699 599.284,95.705 598.572 C 93.697 597.856,85.506 597.855,83.500 598.570 M206.800 598.765 C 202.939 600.244,200.700 603.599,200.848 607.684 C 200.894 608.958,201.082 610.000,201.266 610.000 C 201.450 610.000,201.600 610.347,201.600 610.770 C 201.600 611.776,205.391 615.600,206.389 615.600 C 206.813 615.600,207.304 615.825,207.480 616.100 C 207.656 616.375,208.790 617.094,210.000 617.698 C 211.210 618.302,212.560 619.018,213.000 619.289 C 215.813 621.021,216.319 621.407,216.144 621.690 C 216.037 621.864,216.219 622.109,216.549 622.236 C 216.879 622.363,217.052 622.721,216.932 623.033 C 216.812 623.345,216.914 623.600,217.157 623.600 C 217.643 623.600,217.766 624.901,217.322 625.345 C 217.169 625.498,217.002 625.907,216.951 626.253 C 216.525 629.153,203.946 629.625,202.204 626.807 C 202.078 626.602,201.710 626.536,201.387 626.660 C 200.574 626.972,200.570 631.427,201.382 632.239 C 202.921 633.778,214.734 634.122,216.918 632.691 C 217.513 632.301,218.000 632.075,218.000 632.188 C 218.000 632.302,218.405 632.043,218.900 631.613 C 219.395 631.184,220.100 630.600,220.466 630.316 C 221.756 629.317,223.326 623.172,222.432 622.620 C 222.195 622.473,222.000 622.008,222.000 621.586 C 222.000 619.337,218.742 616.364,213.193 613.548 C 205.140 609.461,203.760 605.813,209.202 602.999 C 210.471 602.343,215.922 602.162,217.105 602.738 C 217.487 602.923,218.203 603.283,218.695 603.538 C 220.824 604.638,221.247 604.248,221.118 601.303 C 221.003 598.664,220.974 598.600,219.800 598.350 C 217.135 597.783,208.658 598.054,206.800 598.765 M262.800 615.600 L 262.800 633.200 265.500 633.200 L 268.200 633.200 268.200 615.600 L 268.200 598.000 265.500 598.000 L 262.800 598.000 262.800 615.600 M8.800 615.817 L 8.800 633.234 16.100 633.090 C 24.264 632.929,23.998 632.971,26.200 631.492 C 30.206 628.800,31.832 624.141,30.364 619.560 C 29.918 618.166,26.627 614.800,25.711 614.800 C 25.430 614.800,25.200 614.633,25.200 614.429 C 25.200 613.970,26.338 612.800,26.785 612.800 C 28.337 612.800,29.410 605.433,28.258 602.678 C 26.806 599.201,24.752 598.509,15.700 598.447 L 8.800 598.400 8.800 615.817 M141.600 600.400 L 141.600 602.400 146.600 602.400 L 151.600 602.400 151.600 617.800 L 151.600 633.200 153.800 633.200 L 156.000 633.200 156.000 617.800 L 156.000 602.400 161.000 602.400 L 166.000 602.400 166.000 600.400 L 166.000 598.400 153.800 598.400 L 141.600 598.400 141.600 600.400 M303.600 600.400 L 303.600 602.400 308.600 602.400 L 313.600 602.400 313.600 617.800 L 313.600 633.200 316.000 633.200 L 318.400 633.200 318.400 617.800 L 318.400 602.400 323.200 602.400 L 328.000 602.400 328.000 600.400 L 328.000 598.400 315.800 598.400 L 303.600 598.400 303.600 600.400 M363.600 615.800 L 363.600 633.200 373.200 633.200 L 382.800 633.200 382.800 631.000 L 382.800 628.800 375.600 628.800 L 368.400 628.800 368.400 623.200 L 368.400 617.600 374.621 617.600 L 380.842 617.600 380.721 615.500 L 380.600 613.400 374.500 613.290 L 368.400 613.179 368.400 607.790 L 368.400 602.400 375.200 602.400 L 382.000 602.400 382.000 600.400 L 382.000 598.400 372.800 598.400 L 363.600 598.400 363.600 615.800 M17.600 602.711 C 17.600 602.882,18.336 603.012,19.236 603.000 C 22.831 602.952,24.800 606.520,23.048 609.908 C 22.143 611.657,20.770 612.257,16.900 612.595 L 13.600 612.883 13.600 607.642 L 13.600 602.400 15.600 602.400 C 16.700 602.400,17.600 602.540,17.600 602.711 M92.604 602.807 C 92.742 603.030,93.010 603.117,93.200 603.000 C 93.631 602.733,96.165 604.430,97.527 605.897 C 98.611 607.065,100.000 610.270,100.000 611.604 C 100.000 612.042,100.135 612.400,100.300 612.400 C 101.175 612.399,100.253 620.717,99.104 623.200 C 96.213 629.446,84.470 631.047,80.956 625.675 C 80.570 625.084,80.018 624.364,79.731 624.075 C 77.464 621.800,77.344 608.000,79.592 608.000 C 79.747 608.000,80.214 607.369,80.629 606.598 C 81.045 605.826,81.703 605.094,82.092 604.971 C 82.481 604.847,82.800 604.598,82.800 604.416 C 82.800 604.235,83.250 603.974,83.800 603.836 C 84.350 603.698,84.800 603.414,84.800 603.205 C 84.800 602.996,85.052 602.922,85.360 603.040 C 85.667 603.158,86.038 603.062,86.183 602.827 C 86.521 602.281,92.268 602.262,92.604 602.807 M22.772 618.432 C 25.443 619.933,26.308 622.892,24.863 625.586 C 23.794 627.579,22.031 628.309,17.500 628.632 L 13.600 628.910 13.600 623.021 L 13.600 617.132 17.386 617.332 C 20.310 617.487,21.537 617.738,22.772 618.432 " stroke="none" fill="#046c94" fill-rule="evenodd"></path><path id="path2" d="M25.600 387.861 C 24.610 388.631,23.191 389.742,22.446 390.331 C 21.701 390.919,20.801 391.564,20.446 391.765 C 20.091 391.965,19.650 392.380,19.468 392.687 C 19.285 392.993,18.745 393.414,18.268 393.621 C 17.025 394.161,16.050 394.844,14.729 396.100 C 14.093 396.705,13.379 397.200,13.143 397.200 C 12.906 397.200,12.327 397.545,11.856 397.966 C 9.102 400.429,7.669 401.600,7.408 401.600 C 7.246 401.600,6.008 402.464,4.657 403.519 C 3.306 404.575,1.705 405.749,1.100 406.129 C -0.330 407.025,-0.009 410.005,1.625 411.016 C 1.831 411.143,2.000 411.582,2.000 411.990 C 2.000 412.399,2.150 412.793,2.333 412.867 C 2.619 412.981,5.402 417.028,6.001 418.200 C 6.643 419.455,9.698 423.923,10.388 424.614 C 10.834 425.062,11.200 425.564,11.200 425.730 C 11.200 426.092,12.682 428.214,13.800 429.453 C 14.240 429.941,15.050 430.993,15.600 431.791 C 20.413 438.773,35.695 455.198,45.009 463.400 C 46.258 464.500,48.004 466.075,48.888 466.900 C 49.773 467.725,50.635 468.400,50.805 468.400 C 50.975 468.400,52.014 469.210,53.116 470.200 C 54.217 471.190,55.307 472.000,55.539 472.000 C 55.771 472.000,56.104 472.244,56.280 472.542 C 56.456 472.840,57.410 473.587,58.400 474.203 C 59.390 474.818,60.566 475.699,61.012 476.161 C 62.345 477.538,64.406 479.000,68.396 481.400 C 69.127 481.840,70.057 482.515,70.463 482.900 C 70.868 483.285,71.292 483.597,71.404 483.594 C 71.628 483.586,72.058 483.838,76.200 486.400 C 80.263 488.913,80.576 489.092,80.829 489.044 C 80.954 489.020,81.372 489.315,81.757 489.700 C 82.142 490.085,82.679 490.400,82.950 490.400 C 83.221 490.400,84.329 490.962,85.412 491.649 C 86.495 492.335,87.635 492.935,87.946 492.980 C 88.257 493.026,88.711 493.337,88.955 493.671 C 89.200 494.006,89.490 494.267,89.600 494.252 C 90.292 494.159,95.108 496.631,94.911 496.978 C 94.779 497.210,94.808 497.278,94.974 497.128 C 95.141 496.979,95.857 497.182,96.565 497.581 C 97.274 497.979,98.427 498.430,99.127 498.584 C 99.827 498.738,100.400 499.040,100.400 499.255 C 100.400 499.471,100.568 499.544,100.772 499.417 C 100.977 499.291,101.260 499.373,101.400 499.600 C 101.540 499.827,101.823 499.909,102.028 499.783 C 102.232 499.656,102.400 499.708,102.400 499.897 C 102.400 500.087,103.345 500.578,104.500 500.988 C 105.655 501.398,106.698 501.879,106.817 502.057 C 106.937 502.235,107.387 502.438,107.817 502.509 C 108.248 502.581,108.960 502.824,109.400 503.049 C 109.840 503.275,111.010 503.708,112.000 504.013 C 112.990 504.317,113.890 504.683,114.000 504.825 C 114.110 504.967,115.550 505.479,117.200 505.963 C 118.850 506.446,120.529 507.023,120.930 507.243 C 121.884 507.768,126.190 509.074,128.100 509.418 C 128.925 509.567,129.600 509.870,129.600 510.091 C 129.600 510.312,129.951 510.401,130.381 510.289 C 130.810 510.177,131.215 510.209,131.281 510.360 C 131.346 510.512,133.110 511.039,135.200 511.531 C 137.290 512.024,139.270 512.514,139.600 512.621 C 141.051 513.091,147.604 514.401,149.700 514.641 C 150.965 514.785,152.000 515.068,152.000 515.269 C 152.000 515.470,152.225 515.593,152.500 515.542 C 152.775 515.491,153.540 515.572,154.200 515.723 C 156.012 516.136,169.707 517.600,171.758 517.600 C 172.745 517.600,173.651 517.759,173.771 517.953 C 174.252 518.732,208.800 518.769,208.800 517.991 C 208.800 517.841,210.703 517.595,213.029 517.444 C 217.096 517.182,225.522 516.228,227.600 515.796 C 228.150 515.681,229.185 515.561,229.900 515.529 C 230.615 515.497,231.200 515.346,231.200 515.194 C 231.200 515.042,233.135 514.611,235.500 514.236 C 237.865 513.861,240.070 513.445,240.400 513.312 C 240.730 513.178,241.315 513.031,241.700 512.985 C 242.085 512.938,242.445 512.864,242.500 512.819 C 242.657 512.693,243.493 512.485,248.157 511.409 C 250.553 510.856,252.713 510.239,252.957 510.038 C 253.201 509.836,254.570 509.378,256.000 509.019 C 257.430 508.660,258.870 508.255,259.200 508.120 C 259.530 507.985,260.043 507.914,260.340 507.964 C 260.673 508.019,260.764 507.866,260.578 507.565 C 260.381 507.246,260.443 507.179,260.756 507.373 C 261.019 507.536,261.452 507.503,261.718 507.301 C 261.983 507.098,263.550 506.520,265.200 506.017 C 266.850 505.513,268.380 504.974,268.600 504.819 C 268.820 504.664,269.900 504.222,271.000 503.835 C 272.100 503.449,273.270 503.030,273.600 502.903 C 273.930 502.777,274.335 502.702,274.500 502.736 C 274.665 502.771,274.800 502.590,274.800 502.333 C 274.800 502.077,274.912 501.979,275.050 502.116 C 275.187 502.253,275.990 502.013,276.834 501.583 C 277.678 501.152,278.632 500.800,278.955 500.800 C 279.279 500.800,279.858 500.485,280.243 500.100 C 280.628 499.715,281.003 499.449,281.076 499.508 C 281.149 499.568,281.701 499.367,282.304 499.062 C 282.907 498.757,284.120 498.280,285.000 498.003 C 285.880 497.726,286.870 497.278,287.200 497.008 C 287.936 496.405,292.317 494.278,292.481 494.444 C 292.547 494.510,292.997 494.223,293.483 493.808 C 293.968 493.392,294.659 493.009,295.018 492.956 C 295.377 492.904,295.969 492.609,296.335 492.303 C 296.701 491.996,298.230 491.128,299.733 490.374 C 301.236 489.619,302.653 488.777,302.882 488.501 C 303.111 488.226,303.567 488.000,303.895 488.000 C 304.746 488.000,304.390 487.501,294.265 474.500 C 285.347 463.049,285.021 462.733,283.200 463.795 C 282.650 464.115,281.210 464.884,280.000 465.503 C 278.790 466.122,277.350 466.920,276.800 467.276 C 276.250 467.632,274.810 468.338,273.600 468.844 C 272.390 469.351,271.340 469.908,271.267 470.082 C 271.193 470.257,270.914 470.400,270.645 470.400 C 270.377 470.400,268.097 471.298,265.578 472.396 C 263.060 473.494,260.725 474.394,260.389 474.396 C 260.053 474.398,259.412 474.656,258.965 474.970 C 258.126 475.557,251.788 477.728,250.900 477.731 C 250.625 477.732,250.400 477.883,250.400 478.067 C 250.400 478.250,250.104 478.400,249.741 478.400 C 249.379 478.400,246.994 479.019,244.441 479.775 C 241.889 480.531,238.381 481.438,236.647 481.790 C 234.912 482.141,233.202 482.569,232.847 482.740 C 232.491 482.911,231.750 483.015,231.200 482.973 C 230.650 482.930,230.110 483.020,230.000 483.174 C 229.831 483.409,222.106 484.476,213.600 485.438 C 212.390 485.575,207.575 485.671,202.900 485.651 C 197.214 485.628,194.400 485.755,194.400 486.035 C 194.400 486.315,193.098 486.379,190.500 486.228 C 188.355 486.103,185.250 485.936,183.600 485.856 C 180.765 485.719,177.552 485.420,174.400 485.000 C 173.630 484.898,172.147 484.725,171.104 484.616 C 170.061 484.507,168.801 484.329,168.304 484.220 C 167.807 484.112,166.770 483.935,166.000 483.826 C 165.230 483.717,162.458 483.082,159.841 482.414 C 157.223 481.746,154.748 481.200,154.341 481.200 C 153.933 481.200,153.600 481.037,153.600 480.837 C 153.600 480.638,153.240 480.569,152.800 480.684 C 152.353 480.801,152.000 480.696,152.000 480.447 C 152.000 480.201,151.726 480.000,151.392 480.000 C 150.419 480.000,144.625 478.248,144.355 477.873 C 144.221 477.685,143.951 477.524,143.755 477.515 C 143.350 477.496,143.548 477.558,139.649 476.223 C 138.026 475.668,136.496 475.061,136.249 474.875 C 136.002 474.690,134.900 474.208,133.800 473.804 C 132.700 473.401,131.358 472.785,130.818 472.435 C 130.277 472.086,129.737 471.835,129.618 471.878 C 129.498 471.920,127.407 470.975,124.972 469.778 C 122.537 468.580,120.332 467.600,120.072 467.600 C 119.812 467.600,119.600 467.409,119.600 467.176 C 119.600 466.943,119.439 466.852,119.242 466.974 C 119.045 467.096,118.781 466.926,118.654 466.598 C 118.528 466.269,118.129 466.000,117.767 466.000 C 117.405 466.000,115.809 465.190,114.221 464.200 C 112.632 463.210,111.123 462.400,110.866 462.400 C 110.610 462.400,110.400 462.238,110.400 462.039 C 110.400 461.841,109.905 461.475,109.300 461.227 C 107.773 460.600,106.552 459.862,105.566 458.969 C 105.104 458.551,103.935 457.757,102.967 457.205 C 100.527 455.812,94.328 451.593,93.599 450.830 C 93.268 450.483,92.518 449.930,91.931 449.600 C 90.744 448.932,85.579 445.045,84.225 443.800 C 83.747 443.360,82.691 442.550,81.880 442.000 C 81.069 441.450,80.404 440.889,80.403 440.754 C 80.401 440.619,79.683 440.012,78.807 439.405 C 77.931 438.798,76.443 437.558,75.500 436.651 C 74.558 435.743,72.807 434.190,71.610 433.200 C 70.412 432.210,68.765 430.725,67.948 429.900 C 67.131 429.075,66.370 428.400,66.256 428.400 C 65.899 428.400,54.395 416.838,49.186 411.245 C 46.444 408.299,43.705 405.361,43.100 404.714 C 42.495 404.067,42.000 403.461,42.000 403.366 C 42.000 403.196,41.216 402.256,38.377 399.022 C 37.594 398.130,36.556 396.860,36.070 396.200 C 35.125 394.915,34.444 394.060,32.048 391.147 C 31.209 390.127,30.121 388.642,29.629 387.847 C 28.531 386.070,27.900 386.073,25.600 387.861 " stroke="none" fill="#048cbc" fill-rule="evenodd"></path><path id="path3" d="M232.408 395.709 C 232.392 396.329,234.032 413.492,234.403 416.600 C 234.614 418.360,235.333 425.560,236.002 432.600 C 239.622 470.736,239.708 471.443,240.568 470.051 C 240.722 469.803,241.353 469.600,241.972 469.600 C 243.945 469.600,252.520 468.012,254.800 467.224 C 256.010 466.806,257.890 466.258,258.977 466.007 C 260.065 465.755,261.685 465.218,262.577 464.812 C 263.470 464.406,265.268 463.700,266.574 463.242 C 267.879 462.784,269.051 462.241,269.177 462.036 C 269.304 461.832,270.347 461.294,271.494 460.842 C 272.642 460.389,273.945 459.655,274.390 459.210 C 274.836 458.764,275.380 458.400,275.600 458.400 C 275.820 458.400,276.000 458.222,276.000 458.005 C 276.000 457.788,276.655 457.011,277.454 456.278 L 278.909 454.945 273.642 448.172 C 270.745 444.448,267.076 439.717,265.488 437.660 C 263.899 435.602,262.060 433.238,261.400 432.406 C 260.740 431.574,258.130 428.230,255.600 424.975 C 253.070 421.720,249.560 417.216,247.800 414.966 C 246.040 412.715,243.927 410.002,243.105 408.937 C 234.351 397.591,232.421 395.204,232.408 395.709 " stroke="none" fill="#044c6c" fill-rule="evenodd"></path><path id="path4" d="M231.200 392.800 C 231.200 393.020,231.740 393.200,232.400 393.200 C 233.060 393.200,233.600 393.020,233.600 392.800 C 233.600 392.580,233.060 392.400,232.400 392.400 C 231.740 392.400,231.200 392.580,231.200 392.800 M234.000 393.250 C 234.000 393.443,234.551 393.600,235.224 393.600 C 235.897 393.600,236.350 393.443,236.231 393.250 C 236.112 393.058,235.561 392.900,235.007 392.900 C 234.453 392.900,234.000 393.058,234.000 393.250 M237.300 393.876 C 237.685 393.976,238.315 393.976,238.700 393.876 C 239.085 393.775,238.770 393.693,238.000 393.693 C 237.230 393.693,236.915 393.775,237.300 393.876 M239.944 394.357 C 240.441 394.672,242.000 394.517,242.000 394.153 C 242.000 394.069,241.415 394.003,240.700 394.006 C 239.816 394.010,239.574 394.123,239.944 394.357 M242.600 394.800 C 242.736 395.020,243.186 395.200,243.600 395.200 C 244.014 395.200,244.464 395.020,244.600 394.800 C 244.745 394.566,244.330 394.400,243.600 394.400 C 242.870 394.400,242.455 394.566,242.600 394.800 M245.600 395.200 C 245.600 395.420,246.039 395.600,246.576 395.600 C 247.113 395.600,247.664 395.420,247.800 395.200 C 247.944 394.967,247.537 394.800,246.824 394.800 C 246.151 394.800,245.600 394.980,245.600 395.200 M248.400 395.586 C 248.400 395.814,248.970 396.000,249.667 396.000 C 251.094 396.000,250.894 395.507,249.385 395.305 C 248.843 395.232,248.400 395.359,248.400 395.586 M251.700 396.276 C 252.085 396.376,252.715 396.376,253.100 396.276 C 253.485 396.175,253.170 396.093,252.400 396.093 C 251.630 396.093,251.315 396.175,251.700 396.276 M254.500 396.676 C 254.885 396.776,255.515 396.776,255.900 396.676 C 256.285 396.575,255.970 396.493,255.200 396.493 C 254.430 396.493,254.115 396.575,254.500 396.676 M257.144 397.157 C 257.641 397.472,259.200 397.317,259.200 396.953 C 259.200 396.869,258.615 396.803,257.900 396.806 C 257.016 396.810,256.774 396.923,257.144 397.157 M259.800 397.600 C 259.936 397.820,260.487 398.000,261.024 398.000 C 261.561 398.000,262.000 397.820,262.000 397.600 C 262.000 397.380,261.449 397.200,260.776 397.200 C 260.063 397.200,259.656 397.367,259.800 397.600 M262.600 398.000 C 262.736 398.220,263.276 398.400,263.800 398.400 C 264.324 398.400,264.864 398.220,265.000 398.000 C 265.147 397.761,264.663 397.600,263.800 397.600 C 262.937 397.600,262.453 397.761,262.600 398.000 M265.800 398.400 C 265.655 398.634,266.070 398.800,266.800 398.800 C 267.530 398.800,267.945 398.634,267.800 398.400 C 267.664 398.180,267.214 398.000,266.800 398.000 C 266.386 398.000,265.936 398.180,265.800 398.400 M268.900 399.076 C 269.285 399.176,269.915 399.176,270.300 399.076 C 270.685 398.975,270.370 398.893,269.600 398.893 C 268.830 398.893,268.515 398.975,268.900 399.076 M271.700 399.476 C 272.085 399.576,272.715 399.576,273.100 399.476 C 273.485 399.375,273.170 399.293,272.400 399.293 C 271.630 399.293,271.315 399.375,271.700 399.476 M274.652 400.012 C 274.925 400.285,275.391 400.294,276.032 400.038 C 276.942 399.674,276.917 399.649,275.620 399.625 C 274.673 399.608,274.369 399.729,274.652 400.012 M277.200 400.400 C 277.200 400.908,278.414 400.908,279.200 400.400 C 279.655 400.106,279.486 400.011,278.500 400.006 C 277.785 400.003,277.200 400.180,277.200 400.400 M280.000 400.800 C 280.000 401.020,280.540 401.200,281.200 401.200 C 281.860 401.200,282.400 401.020,282.400 400.800 C 282.400 400.580,281.860 400.400,281.200 400.400 C 280.540 400.400,280.000 400.580,280.000 400.800 M283.300 401.476 C 283.685 401.576,284.315 401.576,284.700 401.476 C 285.085 401.375,284.770 401.293,284.000 401.293 C 283.230 401.293,282.915 401.375,283.300 401.476 M286.100 401.876 C 286.485 401.976,287.115 401.976,287.500 401.876 C 287.885 401.775,287.570 401.693,286.800 401.693 C 286.030 401.693,285.715 401.775,286.100 401.876 M288.744 402.357 C 289.241 402.672,290.800 402.517,290.800 402.153 C 290.800 402.069,290.215 402.003,289.500 402.006 C 288.616 402.010,288.374 402.123,288.744 402.357 M291.400 402.800 C 291.536 403.020,291.986 403.200,292.400 403.200 C 292.814 403.200,293.264 403.020,293.400 402.800 C 293.545 402.566,293.130 402.400,292.400 402.400 C 291.670 402.400,291.255 402.566,291.400 402.800 M294.200 403.200 C 294.336 403.420,294.887 403.600,295.424 403.600 C 295.961 403.600,296.400 403.420,296.400 403.200 C 296.400 402.980,295.849 402.800,295.176 402.800 C 294.463 402.800,294.056 402.967,294.200 403.200 M297.400 403.600 C 297.255 403.834,297.670 404.000,298.400 404.000 C 299.130 404.000,299.545 403.834,299.400 403.600 C 299.264 403.380,298.814 403.200,298.400 403.200 C 297.986 403.200,297.536 403.380,297.400 403.600 M300.705 404.283 C 301.202 404.379,301.922 404.375,302.305 404.275 C 302.687 404.175,302.280 404.096,301.400 404.101 C 300.520 404.105,300.207 404.187,300.705 404.283 M304.414 404.769 C 305.191 404.921,306.030 405.171,306.277 405.324 C 306.525 405.477,307.059 405.473,307.464 405.314 C 308.270 404.998,305.922 404.425,304.000 404.469 C 303.282 404.486,303.398 404.570,304.414 404.769 M308.800 405.600 C 308.800 406.108,310.014 406.108,310.800 405.600 C 311.255 405.306,311.086 405.211,310.100 405.206 C 309.385 405.203,308.800 405.380,308.800 405.600 M311.600 406.000 C 311.600 406.220,312.140 406.400,312.800 406.400 C 313.460 406.400,314.000 406.220,314.000 406.000 C 314.000 405.780,313.460 405.600,312.800 405.600 C 312.140 405.600,311.600 405.780,311.600 406.000 M314.596 406.406 C 314.457 406.632,314.875 406.800,315.576 406.800 C 316.249 406.800,316.800 406.659,316.800 406.487 C 316.800 406.021,314.878 405.950,314.596 406.406 M317.700 407.076 C 318.085 407.176,318.715 407.176,319.100 407.076 C 319.485 406.975,319.170 406.893,318.400 406.893 C 317.630 406.893,317.315 406.975,317.700 407.076 M320.500 407.476 C 320.885 407.576,321.515 407.576,321.900 407.476 C 322.285 407.375,321.970 407.293,321.200 407.293 C 320.430 407.293,320.115 407.375,320.500 407.476 M323.513 408.094 C 324.188 408.419,324.548 408.412,324.893 408.067 C 325.249 407.711,325.032 407.606,323.980 407.627 C 322.684 407.652,322.656 407.681,323.513 408.094 M326.000 408.400 C 326.000 408.620,326.450 408.800,327.000 408.800 C 327.550 408.800,328.000 408.620,328.000 408.400 C 328.000 408.180,327.550 408.000,327.000 408.000 C 326.450 408.000,326.000 408.180,326.000 408.400 M328.800 408.735 C 328.800 408.920,330.645 409.302,332.900 409.585 C 335.155 409.868,337.302 410.256,337.670 410.448 C 338.039 410.639,338.743 410.647,339.235 410.465 C 339.892 410.222,338.993 409.994,335.851 409.606 C 333.498 409.316,331.478 408.926,331.362 408.739 C 331.091 408.299,328.800 408.296,328.800 408.735 M340.400 410.800 C 340.400 411.020,340.839 411.200,341.376 411.200 C 341.913 411.200,342.464 411.020,342.600 410.800 C 342.744 410.567,342.337 410.400,341.624 410.400 C 340.951 410.400,340.400 410.580,340.400 410.800 M343.200 411.038 C 343.200 411.349,344.797 413.684,345.362 414.200 C 345.603 414.420,347.410 416.760,349.377 419.400 C 351.344 422.040,353.194 424.470,353.489 424.800 C 353.783 425.130,355.233 427.008,356.712 428.974 C 362.153 436.208,368.089 443.982,369.594 445.846 C 370.769 447.301,371.597 448.382,374.480 452.225 C 377.578 456.354,379.150 458.184,379.391 457.942 C 379.509 457.824,379.289 457.360,378.903 456.909 C 377.828 455.655,375.463 452.379,374.880 451.337 C 374.594 450.825,374.009 450.219,373.580 449.989 C 373.151 449.760,372.800 449.348,372.800 449.075 C 372.800 448.802,372.305 448.026,371.700 447.352 C 370.344 445.840,368.800 443.721,368.800 443.374 C 368.800 443.232,368.350 442.761,367.800 442.329 C 367.250 441.896,366.800 441.295,366.800 440.994 C 366.800 440.692,366.469 440.210,366.064 439.923 C 365.659 439.635,364.846 438.635,364.259 437.700 C 363.671 436.765,363.055 436.000,362.890 436.000 C 362.725 436.000,362.412 435.652,362.195 435.226 C 361.679 434.215,358.232 429.631,357.202 428.586 C 356.761 428.138,356.400 427.557,356.400 427.295 C 356.400 427.033,355.950 426.524,355.400 426.163 C 354.850 425.803,354.400 425.329,354.400 425.111 C 354.400 424.892,353.500 423.582,352.400 422.200 C 351.300 420.818,350.400 419.559,350.400 419.404 C 350.400 419.248,349.905 418.608,349.300 417.981 C 347.775 416.400,347.170 415.638,345.894 413.689 C 345.286 412.760,344.611 412.000,344.394 412.000 C 344.177 412.000,344.000 411.730,344.000 411.400 C 344.000 411.070,343.820 410.800,343.600 410.800 C 343.380 410.800,343.200 410.907,343.200 411.038 " stroke="none" fill="#58b2cf" fill-rule="evenodd"></path><path id="path5" d="M90.195 67.200 C 90.195 103.830,90.242 118.815,90.300 100.500 C 90.358 82.185,90.358 52.215,90.300 33.900 C 90.242 15.585,90.195 30.570,90.195 67.200 M386.798 286.319 L 386.997 291.800 387.111 286.632 C 387.174 283.790,387.084 281.324,386.912 281.151 C 386.741 280.979,386.689 283.304,386.798 286.319 M231.288 393.992 C 231.560 394.428,232.052 394.888,232.382 395.014 C 232.712 395.141,232.549 394.784,232.021 394.222 C 230.869 392.997,230.617 392.917,231.288 393.992 M268.184 615.600 C 268.184 625.170,268.236 629.085,268.300 624.300 C 268.363 619.515,268.363 611.685,268.300 606.900 C 268.236 602.115,268.184 606.030,268.184 615.600 M13.757 607.600 C 13.757 610.570,13.820 611.785,13.897 610.300 C 13.974 608.815,13.974 606.385,13.897 604.900 C 13.820 603.415,13.757 604.630,13.757 607.600 M368.558 607.800 C 368.558 610.880,368.621 612.087,368.697 610.482 C 368.773 608.878,368.773 606.358,368.696 604.882 C 368.619 603.407,368.557 604.720,368.558 607.800 M13.760 623.000 C 13.761 626.300,13.822 627.597,13.898 625.882 C 13.973 624.167,13.972 621.467,13.897 619.882 C 13.821 618.297,13.759 619.700,13.760 623.000 M368.559 623.200 C 368.559 626.390,368.621 627.695,368.697 626.100 C 368.773 624.505,368.773 621.895,368.697 620.300 C 368.621 618.705,368.559 620.010,368.559 623.200 " stroke="none" fill="#147ca4" fill-rule="evenodd"></path></g></svg>